<?xml version="1.0"?>
<svg id="Layer_2" data-name="Layer 2" xmlns="http://www.w3.org/2000/svg" viewBox="0 0 303.54 63.3">
  <g id="Layer_1-2" data-name="Layer 1">
    <g>
      <g>
        <path d="M66.76,51.69V9.49h9.53v22.37c1.37-.72,2.54-1.55,3.53-2.47.98-.92,1.82-1.92,2.5-2.98.68-1.06,1.24-2.15,1.66-3.26.42-1.1.77-2.2,1.05-3.29h11.21c-.44,1.61-1.08,3.17-1.9,4.67-.82,1.51-1.84,2.91-3.04,4.22-1.21,1.31-2.6,2.48-4.19,3.53-1.59,1.05-3.35,1.91-5.28,2.59v.48c2.49-.4,4.53-.45,6.12-.15,1.59.3,2.84.86,3.77,1.69.92.82,1.64,1.86,2.14,3.1.5,1.25.89,2.63,1.18,4.16l1.39,7.54h-10.55l-.66-5.31c-.16-1.29-.38-2.49-.66-3.62-.28-1.12-.82-2.04-1.63-2.74-.8-.7-2.07-1.06-3.8-1.06h-2.83v12.72h-9.53Z" style="fill: #282023;"></path>
        <path d="M99.37,51.69v-31.83h8.26v12.96h.48c.24-3.14.76-5.72,1.57-7.75.8-2.03,1.95-3.55,3.44-4.55,1.49-1,3.38-1.51,5.67-1.51,3.46,0,6.06,1.15,7.81,3.44,1.75,2.29,2.62,5.71,2.62,10.25v18.99h-9.77v-17.72c0-2.17-.33-3.8-.99-4.88-.66-1.09-1.72-1.63-3.17-1.63-1.21,0-2.27.42-3.2,1.27-.92.84-1.65,2.21-2.17,4.1-.52,1.89-.78,4.42-.78,7.6v11.27h-9.77Z" style="fill: #282023;"></path>
        <path d="M147.08,52.53c-3.06,0-5.77-.61-8.14-1.84-2.37-1.23-4.22-3.07-5.55-5.55-1.33-2.47-1.99-5.58-1.99-9.31s.69-7.08,2.08-9.56c1.39-2.47,3.28-4.3,5.67-5.49,2.39-1.19,5.09-1.78,8.11-1.78s5.88.61,8.23,1.84c2.35,1.23,4.18,3.07,5.49,5.55,1.31,2.47,1.96,5.6,1.96,9.38s-.69,7.08-2.08,9.56c-1.39,2.47-3.28,4.29-5.67,5.46-2.39,1.17-5.09,1.75-8.11,1.75ZM147.33,45.36c1.25,0,2.29-.35,3.14-1.06.84-.7,1.49-1.74,1.93-3.1.44-1.37.66-2.99.66-4.88,0-2.09-.24-3.85-.72-5.27-.48-1.43-1.18-2.52-2.08-3.29-.9-.76-2-1.15-3.29-1.15-1.21,0-2.23.35-3.07,1.06-.84.7-1.49,1.74-1.93,3.1-.44,1.37-.66,3.01-.66,4.94,0,3.06.53,5.43,1.6,7.11,1.06,1.69,2.54,2.53,4.43,2.53Z" style="fill: #282023;"></path>
        <path d="M180.69,52.53c-2.85,0-5.31-.43-7.36-1.3-2.05-.86-3.72-2.06-5-3.59-1.29-1.53-2.23-3.28-2.83-5.25-.6-1.97-.9-4.06-.9-6.27s.3-4.39.9-6.42c.6-2.03,1.54-3.86,2.8-5.49,1.27-1.63,2.91-2.9,4.94-3.83,2.03-.92,4.47-1.39,7.33-1.39,3.38,0,6.1.63,8.17,1.9,2.07,1.27,3.52,2.9,4.34,4.91.82,2.01,1.06,4.18.69,6.51l-8.44.66c.08-1.45-.07-2.64-.45-3.59-.38-.94-.96-1.65-1.72-2.11-.76-.46-1.69-.69-2.77-.69-.96,0-1.82.18-2.56.54-.74.36-1.37.91-1.87,1.66-.5.74-.88,1.68-1.15,2.8-.26,1.13-.39,2.47-.39,4.04,0,2.01.23,3.74.69,5.18.46,1.45,1.17,2.55,2.11,3.32.94.76,2.14,1.15,3.59,1.15s2.61-.36,3.38-1.08c.76-.72,1.27-1.64,1.51-2.74.24-1.1.28-2.2.12-3.29l8.98.42c.24,1.77.16,3.49-.24,5.15-.4,1.67-1.18,3.17-2.32,4.49-1.15,1.33-2.67,2.37-4.58,3.14-1.91.76-4.23,1.15-6.96,1.15Z" style="fill: #282023;"></path>
        <path d="M196.93,51.69V9.49h9.53v22.37c1.37-.72,2.54-1.55,3.53-2.47.98-.92,1.82-1.92,2.5-2.98.68-1.06,1.24-2.15,1.66-3.26.42-1.1.77-2.2,1.05-3.29h11.21c-.44,1.61-1.08,3.17-1.9,4.67-.82,1.51-1.84,2.91-3.04,4.22-1.21,1.31-2.6,2.48-4.19,3.53-1.59,1.05-3.35,1.91-5.28,2.59v.48c2.49-.4,4.53-.45,6.12-.15,1.59.3,2.84.86,3.77,1.69.92.82,1.64,1.86,2.14,3.1.5,1.25.89,2.63,1.18,4.16l1.39,7.54h-10.55l-.66-5.31c-.16-1.29-.38-2.49-.66-3.62-.28-1.12-.82-2.04-1.63-2.74-.8-.7-2.07-1.06-3.8-1.06h-2.83v12.72h-9.53Z" style="fill: #282023;"></path>
        <path d="M241.87,52.53c-3.06,0-5.77-.61-8.14-1.84-2.37-1.23-4.22-3.07-5.55-5.55-1.33-2.47-1.99-5.58-1.99-9.31s.69-7.08,2.08-9.56c1.39-2.47,3.28-4.3,5.67-5.49,2.39-1.19,5.09-1.78,8.11-1.78s5.88.61,8.23,1.84c2.35,1.23,4.18,3.07,5.49,5.55,1.31,2.47,1.96,5.6,1.96,9.38s-.69,7.08-2.08,9.56-3.28,4.29-5.67,5.46c-2.39,1.17-5.09,1.75-8.11,1.75ZM242.11,45.36c1.25,0,2.29-.35,3.14-1.06.84-.7,1.49-1.74,1.93-3.1.44-1.37.66-2.99.66-4.88,0-2.09-.24-3.85-.72-5.27-.48-1.43-1.17-2.52-2.08-3.29-.9-.76-2-1.15-3.29-1.15-1.21,0-2.23.35-3.07,1.06-.84.7-1.49,1.74-1.93,3.1-.44,1.37-.66,3.01-.66,4.94,0,3.06.53,5.43,1.6,7.11,1.06,1.69,2.54,2.53,4.43,2.53Z" style="fill: #282023;"></path>
        <path d="M263.99,51.69v-19.47h-4.4v-6.99l9.71.66v-.48c-2.45-.28-4.3-.86-5.55-1.75-1.25-.88-2.08-1.89-2.5-3.01-.42-1.12-.63-2.15-.63-3.07,0-1.81.49-3.39,1.48-4.73.98-1.35,2.35-2.38,4.1-3.1,1.75-.72,3.73-1.09,5.94-1.09,1.81,0,3.43.24,4.85.72s2.72,1.19,3.89,2.11l-.78,8.92c-1.08-.76-2.13-1.34-3.13-1.72-1.01-.38-2.03-.57-3.08-.57-1.21,0-2.2.26-2.98.78-.78.52-1.18,1.35-1.18,2.47,0,.6.16,1.17.48,1.69.32.52.83.93,1.54,1.24s1.66.45,2.86.45h6.03v7.48h-6.99v19.47h-9.65Z" style="fill: #282023;"></path>
        <path d="M286.66,51.69v-19.47h-4.4v-6.99l9.71.66v-.48c-2.45-.28-4.3-.86-5.55-1.75-1.25-.88-2.08-1.89-2.5-3.01-.42-1.12-.63-2.15-.63-3.07,0-1.81.49-3.39,1.48-4.73.98-1.35,2.35-2.38,4.1-3.1,1.75-.72,3.73-1.09,5.94-1.09,1.81,0,3.43.24,4.85.72s2.72,1.19,3.89,2.11l-.78,8.92c-1.08-.76-2.13-1.34-3.13-1.72-1.01-.38-2.03-.57-3.08-.57-1.21,0-2.2.26-2.98.78-.78.52-1.18,1.35-1.18,2.47,0,.6.16,1.17.48,1.69.32.52.83.93,1.54,1.24s1.66.45,2.86.45h6.03v7.48h-6.99v19.47h-9.65Z" style="fill: #282023;"></path>
      </g>
      <g>
        <path d="M46.83,11.46L29.85,1.55C25.13-1.21,19.11-.2,15.55,3.95L2.74,18.86C.54,21.42-.4,24.79.16,28.12l3.79,22.58c1.38,8.21,9.18,13.77,17.4,12.39l22.34-3.75c8.21-1.38,13.77-9.18,12.39-17.4l-3.79-22.58c-.56-3.33-2.55-6.21-5.46-7.9h0ZM25.71,20.65c-2.57.43-5-1.3-5.44-3.87s1.3-5,3.87-5.44,5,1.3,5.44,3.87c.43,2.57-1.3,5-3.87,5.44Z" style="fill: #e01024;"></path>
        <path d="M42.83,44.9l-8.64-6.16c-.44-.32-.55-.93-.23-1.38l6.16-8.64c.32-.44.21-1.06-.23-1.38l-3.77-2.68c-.44-.32-1.06-.21-1.38.23l-6.16,8.64c-.32.44-.93.55-1.38.23l-8.64-6.16c-.44-.32-1.06-.21-1.38.23l-2.68,3.77c-.32.44-.21,1.06.23,1.38l8.64,6.16c.44.32.55.93.23,1.38l-6.16,8.64c-.32.44-.21,1.06.23,1.38l3.77,2.68c.44.32,1.06.21,1.38-.23l6.16-8.64c.32-.44.93-.55,1.38-.23l8.64,6.16c.44.32,1.06.21,1.38-.23l2.68-3.77c.32-.44.21-1.06-.23-1.38Z" style="fill: #fff;"></path>
      </g>
    </g>
  </g>
</svg>
